# File created by Blade
# Date/Time:  Wed Jan 21 16:27:40 2015
# Frame Rate: 120.000 fps
#------------------------------------------------------
:FULLY-SPECIFIED
:DEGREES
1952
root 19.170036 35.265415 -21.007255 -179.266216 0.066670 -177.910188
Spine -12.094231 0.129435 2.229722
Head 6.007494 0.023100 -1.301029
LeftShoulder -12.118693 -30.738278 22.096430
LeftArm -0.087641 2.782558 -2.158865
LeftForeArm 7.618536 0.000000 0.224948
LeftHand -9.032077 -0.000000 2.266254
LeftHandThumb1 -26.253704 0.000000 33.147579
RightShoulder -10.728434 -5.106568 -12.995064
RightArm -2.966373 36.152496 5.458133
RightForeArm -35.931900 -0.000000 7.269358
RightHand -6.400781 -0.000000 3.626733
RightHandThumb1 -24.326973 -0.000000 -32.862282
LeftUpLeg 8.573843 9.823383 7.481596
LeftLeg -5.202957 -0.000000 0.000000
LeftFoot -21.734133 27.052226 -13.037125
LeftToeBase 28.069360 -0.000000 -0.000000
RightUpLeg 5.293862 -8.716120 -3.734524
RightLeg -1.081783 -0.000000 0.000000
RightFoot -20.912018 -22.533999 17.018846
RightToeBase 24.961592 -0.000000 -0.000000
1953
root 19.178519 35.262918 -21.027858 -179.231350 0.061493 -177.895007
Spine -12.146624 0.179406 2.228197
Head 5.994485 0.106247 -1.231777
LeftShoulder -12.234222 -30.813266 22.215819
LeftArm 0.028613 2.791336 -2.106505
LeftForeArm 7.633406 -0.000000 0.199150
LeftHand -9.093636 0.000000 2.181555
LeftHandThumb1 -26.253704 0.000000 33.147579
RightShoulder -10.777272 -5.053819 -13.033151
RightArm -2.925238 36.257740 5.343866
RightForeArm -35.915232 -0.000000 7.146855
RightHand -6.428312 -0.000000 3.593612
RightHandThumb1 -24.326973 -0.000000 -32.862282
LeftUpLeg 8.572326 9.797552 7.510377
LeftLeg -5.190678 -0.000000 0.000000
LeftFoot -21.752872 27.052649 -13.014437
LeftToeBase 28.054128 -0.000000 -0.000000
RightUpLeg 5.307210 -8.737038 -3.710784
RightLeg -1.111203 -0.000000 0.000000
RightFoot -20.921031 -22.519383 17.059894
RightToeBase 24.920852 -0.000000 -0.000000
1954
root 19.188146 35.260384 -21.047872 -179.199662 0.076591 -177.881543
Spine -12.199386 0.243164 2.221200
Head 6.008024 0.159413 -1.174916
LeftShoulder -12.355119 -30.841327 22.327846
LeftArm 0.142175 2.768476 -2.078361
LeftForeArm 7.637118 -0.000000 0.120894
LeftHand -9.114349 0.000000 2.164542
LeftHandThumb1 -26.253704 0.000000 33.147579
RightShoulder -10.799668 -4.958704 -13.121891
RightArm -2.945153 36.474900 5.319435
RightForeArm -36.163882 0.000000 7.141963
RightHand -6.471851 -0.000000 3.737369
RightHandThumb1 -24.326973 -0.000000 -32.862282
LeftUpLeg 8.590730 9.775067 7.533935
LeftLeg -5.215470 -0.000000 0.000000
LeftFoot -21.777517 27.104028 -13.044342
LeftToeBase 28.025884 -0.000000 -0.000000
RightUpLeg 5.312521 -8.745000 -3.684621
RightLeg -1.127015 -0.000000 0.000000
RightFoot -20.955630 -22.509914 17.076427
RightToeBase 24.966731 -0.000000 -0.000000
1955
root 19.200036 35.258034 -21.067524 -179.171022 0.092591 -177.854745
Spine -12.235445 0.301065 2.226910
Head 5.999372 0.246791 -1.096529
LeftShoulder -12.458301 -30.943858 22.465569
LeftArm 0.180925 2.745306 -2.079891
LeftForeArm 7.757417 -0.000000 0.028361
LeftHand -9.133997 -0.000000 1.907837
LeftHandThumb1 -26.253704 0.000000 33.147579
RightShoulder -10.857495 -4.880941 -13.181365
RightArm -2.847973 36.636090 5.355362
RightForeArm -36.221160 -0.000000 7.046630
RightHand -6.505190 0.000000 3.830237
RightHandThumb1 -24.326973 -0.000000 -32.862282
LeftUpLeg 8.603925 9.787015 7.579519
LeftLeg -5.224770 -0.000000 0.000000
LeftFoot -21.813194 27.107533 -13.075054
LeftToeBase 28.047222 -0.000000 -0.000000
RightUpLeg 5.321654 -8.762702 -3.641042
RightLeg -1.148106 -0.000000 0.000000
RightFoot -20.948042 -22.495887 17.075824
RightToeBase 24.893420 -0.000000 -0.000000
1956
root 19.210817 35.255874 -21.086619 -179.147778 0.106991 -177.836146
Spine -12.266079 0.358116 2.222250
Head 5.993206 0.316848 -0.991763
LeftShoulder -12.558289 -31.008135 22.597173
LeftArm 0.224345 2.684443 -2.142421
LeftForeArm 7.810529 0.000000 -0.099132
LeftHand -9.287828 -0.000000 1.876966
LeftHandThumb1 -26.253704 0.000000 33.147579
RightShoulder -10.922555 -4.887305 -13.183222
RightArm -2.706802 36.795223 5.394243
RightForeArm -36.223255 -0.000000 6.903376
RightHand -6.529873 -0.000000 3.960298
RightHandThumb1 -24.326973 -0.000000 -32.862282
LeftUpLeg 8.621163 9.812000 7.615818
LeftLeg -5.234281 -0.000000 0.000000
LeftFoot -21.832671 27.108656 -13.101225
LeftToeBase 28.027422 -0.000000 -0.000000
RightUpLeg 5.334596 -8.777329 -3.609788
RightLeg -1.165151 -0.000000 0.000000
RightFoot -20.963676 -22.475007 17.077001
RightToeBase 24.966622 -0.000000 -0.000000
1957
root 19.223192 35.254033 -21.104705 -179.128608 0.120262 -177.813004
Spine -12.285611 0.429446 2.220374
Head 5.969150 0.397174 -0.894142
LeftShoulder -12.572123 -31.169460 22.685142
LeftArm 0.166814 2.584609 -2.166434
LeftForeArm 8.061884 -0.000000 -0.208446
LeftHand -9.311966 -0.000000 1.559685
LeftHandThumb1 -26.253704 0.000000 33.147579
RightShoulder -10.949411 -4.869893 -13.234689
RightArm -2.671458 36.979191 5.467607
RightForeArm -36.196507 -0.000000 6.801076
RightHand -6.463264 -0.000000 4.137954
RightHandThumb1 -24.326973 -0.000000 -32.862282
LeftUpLeg 8.644396 9.791590 7.655412
LeftLeg -5.250549 -0.000000 0.000000
LeftFoot -21.893681 27.141929 -13.163860
LeftToeBase 28.055736 -0.000000 -0.000000
RightUpLeg 5.351904 -8.778201 -3.569751
RightLeg -1.183198 -0.000000 0.000000
RightFoot -20.988035 -22.474575 17.091483
RightToeBase 24.930513 -0.000000 -0.000000
1958
root 19.236685 35.251908 -21.120862 -179.116959 0.144437 -177.783676
Spine -12.290335 0.503187 2.227312
Head 5.924793 0.404851 -0.833174
LeftShoulder -12.658269 -31.135149 22.740075
LeftArm 0.298929 2.423821 -2.239329
LeftForeArm 8.263335 -0.000000 -0.518398
LeftHand -9.455865 -0.000000 1.503827
LeftHandThumb1 -26.253704 0.000000 33.147579
RightShoulder -10.928718 -4.806336 -13.332270
RightArm -2.721734 37.207770 5.601447
RightForeArm -36.448496 -0.000000 6.785874
RightHand -6.505520 -0.000000 4.300878
RightHandThumb1 -24.326973 -0.000000 -32.862282
LeftUpLeg 8.675170 9.803976 7.701750
LeftLeg -5.284510 -0.000000 0.000000
LeftFoot -21.902822 27.206636 -13.206510
LeftToeBase 28.032902 -0.000000 -0.000000
RightUpLeg 5.367558 -8.768966 -3.521173
RightLeg -1.194925 -0.000000 0.000000
RightFoot -20.999441 -22.466130 17.095422
RightToeBase 24.938271 -0.000000 -0.000000
1959
root 19.252006 35.249818 -21.136681 -179.114691 0.177052 -177.750865
Spine -12.276016 0.582531 2.226501
Head 5.865632 0.440197 -0.738015
LeftShoulder -12.701870 -31.204206 22.846759
LeftArm 0.235669 2.253281 -2.360650
LeftForeArm 8.390692 -0.000000 -0.650704
LeftHand -9.487148 -0.000000 1.049166
LeftHandThumb1 -26.253704 0.000000 33.147579
RightShoulder -10.938208 -4.764943 -13.366869
RightArm -2.677405 37.358006 5.727586
RightForeArm -36.333164 -0.000000 6.684498
RightHand -6.530531 -0.000000 4.516238
RightHandThumb1 -24.326973 -0.000000 -32.862282
LeftUpLeg 8.707095 9.834587 7.764927
LeftLeg -5.281436 -0.000000 0.000000
LeftFoot -21.928372 27.204410 -13.231354
LeftToeBase 28.011978 -0.000000 -0.000000
RightUpLeg 5.390611 -8.741355 -3.467130
RightLeg -1.207827 -0.000000 0.000000
RightFoot -21.012035 -22.474030 17.088046
RightToeBase 24.948227 -0.000000 -0.000000
1960
root 19.267182 35.247998 -21.151907 -179.121725 0.216738 -177.725243
Spine -12.235308 0.668616 2.210556
Head 5.789581 0.481200 -0.611866
LeftShoulder -12.729698 -31.320102 22.963291
LeftArm 0.163356 2.178504 -2.488287
LeftForeArm 8.542543 -0.000000 -0.854285
LeftHand -9.665745 -0.000000 0.744510
LeftHandThumb1 -26.253704 0.000000 33.147579
RightShoulder -10.973466 -4.742009 -13.392109
RightArm -2.594065 37.613390 5.916906
RightForeArm -36.455474 -0.000000 6.573791
RightHand -6.553855 -0.000000 4.670824
RightHandThumb1 -24.326973 -0.000000 -32.862282
LeftUpLeg 8.768474 9.798354 7.815085
LeftLeg -5.317336 -0.000000 0.000000
LeftFoot -21.955680 27.266829 -13.281542
LeftToeBase 28.019393 -0.000000 -0.000000
RightUpLeg 5.418062 -8.726639 -3.416304
RightLeg -1.221316 -0.000000 0.000000
RightFoot -21.053846 -22.520736 17.113601
RightToeBase 24.943422 -0.000000 -0.000000
1961
root 19.281753 35.246241 -21.166427 -179.131614 0.231898 -177.689786
Spine -12.192404 0.709107 2.226434
Head 5.716812 0.501625 -0.518761
LeftShoulder -12.804693 -31.343000 23.038941
LeftArm 0.205977 1.997246 -2.640997
LeftForeArm 8.661955 -0.000000 -1.192362
LeftHand -9.637004 0.000000 0.381934
LeftHandThumb1 -26.253704 0.000000 33.147579
RightShoulder -10.973469 -4.725495 -13.425412
RightArm -2.500636 37.729089 6.114474
RightForeArm -36.347235 0.000000 6.429833
RightHand -6.553577 -0.000000 4.852372
RightHandThumb1 -24.326973 -0.000000 -32.862282
LeftUpLeg 8.809413 9.793743 7.876863
LeftLeg -5.328678 -0.000000 0.000000
LeftFoot -22.020852 27.281851 -13.387559
LeftToeBase 28.039334 -0.000000 -0.000000
RightUpLeg 5.460699 -8.738039 -3.366954
RightLeg -1.242804 -0.000000 0.000000
RightFoot -21.060831 -22.482485 17.141683
RightToeBase 25.033208 -0.000000 -0.000000
1962
root 19.296319 35.244374 -21.182175 -179.156101 0.242044 -177.669817
Spine -12.134628 0.749167 2.216943
Head 5.650485 0.504560 -0.425022
LeftShoulder -12.860982 -31.347797 23.116408
LeftArm 0.197744 1.826135 -2.808678
LeftForeArm 8.783039 -0.000000 -1.474627
LeftHand -9.745783 0.000000 0.120140
LeftHandThumb1 -26.253704 0.000000 33.147579
RightShoulder -10.953128 -4.755461 -13.443818
RightArm -2.448098 37.960074 6.320237
RightForeArm -36.377962 -0.000000 6.309478
RightHand -6.593642 0.000000 5.069425
RightHandThumb1 -24.326973 -0.000000 -32.862282
LeftUpLeg 8.863392 9.789269 7.929834
LeftLeg -5.324242 -0.000000 0.000000
LeftFoot -22.004166 27.298957 -13.336156
LeftToeBase 28.041986 -0.000000 -0.000000
RightUpLeg 5.521767 -8.782809 -3.334510
RightLeg -1.266940 -0.000000 0.000000
RightFoot -21.056186 -22.447228 17.117965
RightToeBase 24.957996 -0.000000 -0.000000
1963
root 19.312211 35.242012 -21.196698 -179.177235 0.244984 -177.641406
Spine -12.081764 0.761325 2.220815
Head 5.608664 0.552101 -0.328722
LeftShoulder -12.929855 -31.299340 23.187994
LeftArm 0.185909 1.646302 -2.983536
LeftForeArm 8.888471 -0.000000 -1.723597
LeftHand -9.826132 -0.000000 -0.332465
LeftHandThumb1 -26.253704 0.000000 33.147579
RightShoulder -10.977576 -4.832648 -13.420611
RightArm -2.243012 38.204766 6.562288
RightForeArm -36.356516 -0.000000 6.110242
RightHand -6.579982 -0.000000 5.246473
RightHandThumb1 -24.326973 -0.000000 -32.862282
LeftUpLeg 8.914526 9.752338 7.988612
LeftLeg -5.332511 -0.000000 0.000000
LeftFoot -22.016371 27.339591 -13.324121
LeftToeBase 28.053586 -0.000000 -0.000000
RightUpLeg 5.575465 -8.793249 -3.292775
RightLeg -1.282652 -0.000000 0.000000
RightFoot -21.064751 -22.430696 17.108583
RightToeBase 24.995745 -0.000000 -0.000000
